<?xml version="1.0" encoding="utf-8"?>
<!DOCTYPE svg PUBLIC "-//W3C//DTD SVG 1.1//EN" "http://www.w3.org/Graphics/SVG/1.1/DTD/svg11.dtd">
<svg version="1.1" id="Capa_1" xmlns="http://www.w3.org/2000/svg" xmlns:xlink="http://www.w3.org/1999/xlink" x="0px" y="0px"
	 width="170.079px" height="49.232px" viewBox="0 0 170.079 49.232" enable-background="new 0 0 170.079 49.232"
	 xml:space="preserve">
<g>
	<path fill-rule="evenodd" clip-rule="evenodd" d="M94.246,21.903c0,0.306-0.055,0.424-0.392,0.428
		c-1.12,0.001-1.115,0.016-1.425-1.058c-0.446-1.546-0.97-3.063-1.845-4.429c-2.528-3.969-6.896-3.566-9.593-1.567
		c-1.564,1.16-2.521,2.754-3.087,4.569c-1.121,3.581-1.329,7.214-0.32,10.85c0.726,2.618,2.106,4.803,4.482,6.272
		c3.143,1.938,7.68,1.132,9.959-1.764c0.686-0.863,1.267-1.773,1.659-2.8c0.092-0.238,0.208-0.35,0.451-0.166
		c0.068,0.039,0.147,0.074,0.222,0.107c0.901,0.436,0.901,0.436,0.466,1.357c-1.115,2.34-2.646,4.273-5.068,5.383
		c-2.146,0.978-4.396,1.234-6.714,0.925c-3.564-0.475-6.299-2.302-8.268-5.272c-1.2-1.813-1.901-3.839-2.156-6
		c-0.313-2.694-0.179-5.36,0.765-7.926c1.653-4.495,4.71-7.46,9.496-8.371c2.959-0.563,5.83-0.155,8.466,1.391
		c0.388,0.23,0.572,0.169,0.722-0.211c0.016-0.03,0.034-0.055,0.053-0.082c0.464-0.763,0.874-0.933,1.745-0.77
		c0.245,0.045,0.203,0.21,0.203,0.361C94.076,14.607,94.23,20.456,94.246,21.903z"/>
	<path fill-rule="evenodd" clip-rule="evenodd" d="M56.544,22.291c0.159-0.612,0.292-1.13,0.416-1.646
		c0.033-0.131,0.101-0.191,0.218-0.237c1.771-0.649,3.51-1.461,5.45-1.526c1.382-0.046,2.724,0.099,3.883,0.973
		c0.922,0.703,1.434,1.624,1.506,2.775c0.118,1.784-0.349,3.474-0.829,5.164c-0.549,1.919-1.156,3.819-1.565,5.771
		c-0.125,0.612-0.206,1.222-0.175,1.837c0.055,1.169,0.551,1.662,1.719,1.759c0.923,0.068,1.81-0.097,2.674-0.397
		c0.12-0.041,0.226-0.146,0.403-0.054c-0.121,0.495-0.258,0.993-0.365,1.492c-0.038,0.166-0.127,0.252-0.271,0.306
		c-1.404,0.504-2.749,1.202-4.234,1.42c-1.458,0.218-2.916,0.218-4.302-0.412c-1.643-0.747-2.503-2.297-2.395-4.09
		c0.135-2.113,0.851-4.089,1.392-6.104c0.41-1.521,0.914-3.016,1.164-4.575c0.094-0.611,0.117-1.231-0.01-1.841
		c-0.125-0.609-0.511-0.953-1.11-1.083c-1.073-0.228-2.096-0.028-3.111,0.317C56.882,22.179,56.761,22.22,56.544,22.291z"/>
	<path fill-rule="evenodd" clip-rule="evenodd" d="M122.769,23.696c0.644-0.728,1.182-1.354,1.847-1.839
		c0.949-0.69,1.957-1.204,3.139-1.333c1.56-0.169,2.781,0.771,2.977,2.333c0.077,0.641,0.008,1.263-0.273,1.858
		c-0.436,0.931-1.307,1.278-2.416,0.956c-0.967-0.279-1.486-1.095-1.344-2.086c0.038-0.194,0.038-0.396,0.106-0.577
		c0.146-0.44-0.106-0.433-0.397-0.362c-1.551,0.38-2.694,1.312-3.562,2.618c-0.12,0.179-0.077,0.381-0.077,0.569
		c0,3.271,0,6.536,0,9.807c0,1.728,0.449,2.247,2.185,2.48c0.203,0.025,0.418,0.054,0.625,0.078c0.79,0.117,0.771,0.117,0.778,0.91
		c0.006,0.345-0.128,0.397-0.424,0.393c-0.865-0.014-1.725-0.005-2.587-0.005c-2.099,0-4.197-0.009-6.29,0.009
		c-0.383,0-0.548-0.096-0.484-0.483c0.013-0.126,0.01-0.263,0-0.388c-0.03-0.291,0.076-0.416,0.376-0.406
		c0.428,0,0.85-0.054,1.251-0.184c0.659-0.225,1.027-0.67,1.042-1.372c0.025-1.818,0.016-3.645,0.025-5.461c0-2.019,0-4.038,0-6.053
		c-0.01-1.682-0.796-2.588-2.453-2.726c-0.441-0.034-0.513-0.213-0.474-0.575c0.033-0.333-0.166-0.734,0.474-0.763
		c1.782-0.079,3.567-0.223,5.351-0.349c0.445-0.031,0.621,0.14,0.61,0.586C122.754,22.07,122.769,22.806,122.769,23.696z"/>
	<path fill-rule="evenodd" clip-rule="evenodd" d="M62.726,11.786c0.007-1.917,1.582-3.565,3.436-3.731
		c1.639-0.143,2.993,0.356,3.921,1.724c1.152,1.706,0.689,3.761-1.048,4.991c-1.846,1.316-4.69,0.712-5.843-1.238
		C62.861,12.979,62.696,12.372,62.726,11.786z"/>
	<g>
		<path fill-rule="evenodd" clip-rule="evenodd" d="M32.583,46.319c-0.535,0.428-0.942,0.975-1.49,1.396
			c-0.78,0.601-1.62,1.085-2.502,1.517c1.538-0.364,2.996-0.897,4.292-1.822l0,0c1.188-0.704,2.25-1.561,3.104-2.652
			c0.496-0.552,1.02-1.084,1.367-1.753c0.311-0.539,0.72-1.027,0.9-1.648c0.417-0.494,0.532-1.129,0.734-1.706
			c0.257-0.741,0.548-1.487,0.538-2.296c0.14-0.097,0.112-0.262,0.136-0.397c0.209-1.377,0.223-2.757,0.009-4.128
			c-0.646-4.151-2.602-7.548-6.04-10.008c-3.627-2.587-7.669-3.481-12.003-2.427c-5.708,1.388-9.403,4.998-11.056,10.647
			c-0.591,2.035-0.691,4.113-0.312,6.208c0.238,1.396,0.596,2.743,1.258,4.002c0.432,1.037,1.051,1.958,1.742,2.831
			c0.76,0.969,1.601,1.855,2.628,2.558c0.068,0.067,0.121,0.145,0.196,0.204c0.979,0.746,2.05,1.318,3.182,1.779
			c0.546,0.217,1.1,0.47,1.71,0.499c-0.303-0.209-0.62-0.373-0.928-0.542c-1.471-0.805-2.58-2.001-3.559-3.325
			c-0.964-1.556-1.46-3.257-1.574-5.074c-0.02-2.394,0.671-4.55,2.132-6.459c0.663-0.862,1.509-1.542,2.338-2.229
			c0.194-0.105,0.39-0.208,0.583-0.32c2.186-1.32,4.55-1.542,7.001-1.107c1.379,0.25,2.608,0.875,3.782,1.622
			c0.04,0.048,0.07,0.102,0.119,0.135c1.858,1.395,3.065,3.228,3.731,5.437c0.369,1.415,0.417,2.84,0.22,4.274
			C34.449,43.306,33.726,44.909,32.583,46.319z"/>
		<path fill-rule="evenodd" clip-rule="evenodd" d="M49.634,21.5c-0.898-6.195-3.678-11.405-8.446-15.471
			c-5.824-4.962-12.597-6.814-20.151-5.731c-3.569,0.509-6.857,1.827-9.859,3.828c-4.562,3.047-7.817,7.15-9.698,12.305
			c-1.205,3.305-1.675,6.729-1.409,10.252c0.16,2.015,0.528,3.984,1.172,5.894c0.817,2.626,2.084,5.02,3.747,7.199
			c0.406,0.611,0.882,1.164,1.378,1.697c0.828,0.911,1.69,1.793,2.684,2.529c0.139,0.136,0.265,0.286,0.417,0.407
			c2.515,1.949,5.292,3.383,8.342,4.285c0.11,0.033,0.218,0.116,0.341,0c-0.079-0.04-0.15-0.078-0.222-0.106
			c-2.095-0.767-3.977-1.882-5.684-3.306c-0.974-0.814-1.819-1.749-2.695-2.656c-0.807-1.021-1.543-2.083-2.171-3.226
			c-0.571-1.038-0.983-2.142-1.427-3.233c-0.026-0.111-0.047-0.217-0.082-0.324c-0.899-3.014-1.144-6.06-0.627-9.17
			c0.2-1.22,0.564-2.385,0.892-3.57c0.075-0.182,0.157-0.359,0.23-0.534c1.281-3.267,3.319-6.002,6.041-8.178
			c4.402-3.53,9.451-4.969,15.068-4.274c4.116,0.509,7.704,2.188,10.789,4.964c1.703,1.534,3.101,3.31,4.24,5.307
			c0.072,0.16,0.142,0.327,0.217,0.484c1.445,2.874,2.168,5.91,2.163,9.124c0,1.392-0.226,2.757-0.416,4.134
			c-0.507,2.006-1.221,3.935-2.23,5.757c-1.07,1.719-2.306,3.303-3.796,4.685c-1.548,1.405-3.249,2.583-5.151,3.445
			c-0.617,0.286-1.245,0.533-1.87,0.795c0.108,0.028,0.203,0.019,0.291,0c1.21-0.331,2.384-0.76,3.518-1.289
			c1.222-0.558,2.434-1.143,3.508-1.977c0.609-0.339,1.159-0.766,1.701-1.202c0.92-0.737,1.834-1.478,2.57-2.413
			c1.116-1.038,2.009-2.24,2.818-3.523c0.239-0.394,0.48-0.791,0.72-1.188c1.023-1.701,1.804-3.508,2.32-5.432
			c0.193-0.796,0.424-1.577,0.574-2.38C49.93,26.783,50.021,24.144,49.634,21.5z"/>
	</g>
	<path fill-rule="evenodd" clip-rule="evenodd" d="M149.674,39.909c-0.562-2.054-2.053-3.3-4.087-3.659
		c-1.627-0.281-3.305-0.256-4.957-0.349c-1.039-0.053-2.084,0.029-3.077-0.348c-0.582-0.224-1.002-0.593-1.037-1.271
		c-0.058-0.949,0.735-1.791,1.696-1.812c1.057-0.024,2.112,0.097,3.16-0.092c2.103-0.382,3.789-1.425,4.787-3.325
		c1.027-1.962,0.732-3.896-0.468-5.713c-0.095-0.143-0.327-0.281-0.249-0.438c0.098-0.182,0.353-0.071,0.536-0.072
		c0.518-0.013,1.043-0.008,1.558-0.008c0.289,0,0.587,0.014,0.877-0.003c0.43-0.021,0.994,0.191,1.261-0.091
		c0.259-0.286,0.041-0.843,0.089-1.277c0.04-0.368-0.144-0.419-0.456-0.417c-1.235,0.015-2.474-0.017-3.711,0.01
		c-1.314,0.032-2.599-0.106-3.896-0.397c-2.181-0.484-4.294-0.249-6.222,0.998c-2.637,1.706-3.402,5.224-1.671,7.735
		c0.654,0.961,1.565,1.633,2.592,2.162c0.121,0.062,0.286,0.101,0.286,0.29c0,0.195-0.165,0.224-0.286,0.283
		c-0.476,0.222-0.93,0.475-1.333,0.813c-1.574,1.289-1.646,3.287-0.159,4.545c0.562,0.466,1.235,0.708,1.913,0.947
		c0.132,0.042,0.316,0.067,0.281,0.266c-0.023,0.174-0.203,0.126-0.324,0.136c-0.862,0.077-1.696,0.257-2.49,0.606
		c-2.487,1.094-3.296,3.949-1.687,6.081c0.799,1.057,1.963,1.58,3.213,1.881c2.418,0.586,4.859,0.595,7.306,0.262
		c1.761-0.237,3.428-0.79,4.799-1.977C149.697,44.128,150.276,42.147,149.674,39.909z M136.55,26.274
		c0.019-0.975,0.121-1.941,0.557-2.845c0.514-1.058,1.356-1.63,2.53-1.676c1.187-0.042,2.111,0.426,2.731,1.457
		c0.611,1.021,0.81,2.141,0.794,3.319c0.03,1.154-0.198,2.251-0.805,3.254c-1.064,1.767-3.526,1.907-4.767,0.261
		C136.749,28.927,136.521,27.624,136.55,26.274z M143.929,45.97c-2.215,0.693-4.448,0.679-6.627-0.154
		c-1.455-0.548-2.176-1.575-2.171-2.917c0-1.551,0.746-2.612,2.19-3.238c1.163-0.503,2.364-0.479,3.141-0.435
		c1.693,0.076,2.946,0.086,4.186,0.251c1.236,0.165,2.046,1.046,2.118,2.288C146.891,43.925,146,45.321,143.929,45.97z"/>
	<path fill-rule="evenodd" clip-rule="evenodd" d="M114.661,38.044c-0.116-0.219-0.45-0.069-0.678-0.092
		c-0.164-0.021-0.332-0.015-0.496-0.015c-1.114-0.01-1.918-0.752-1.942-1.871c-0.033-1.483-0.005-2.956,0.035-4.439
		c0.047-2.225,0.193-4.456-0.054-6.674c-0.21-1.826-1.119-3.208-2.835-3.969c-1.013-0.445-2.103-0.509-3.199-0.546
		c-2.325-0.083-4.447,0.484-6.187,2.105c-0.888,0.823-1.382,1.803-0.974,3.058c0.349,1.052,1.114,1.488,2.249,1.261
		c1.124-0.221,1.754-0.977,1.657-2.038c-0.03-0.339-0.097-0.677-0.167-1.008c-0.25-1.257-0.144-1.443,1.106-1.795
		c0.145-0.039,0.282-0.089,0.421-0.12c2.098-0.383,3.68,0.311,4.319,2.578c0.222,0.795,0.155,1.611,0.212,2.421
		c0.044,0.606-0.18,0.875-0.727,1.096c-1.933,0.77-3.93,1.356-5.883,2.061c-2.21,0.805-3.881,2.05-4.216,4.599
		c-0.297,2.332,1.047,4.59,3.245,5.113c2.032,0.484,3.965,0.155,5.734-1.009c0.674-0.444,1.241-1.026,1.803-1.578
		c0.17,0.091,0.149,0.222,0.178,0.32c0.375,1.385,1.285,2.122,2.686,2.326c1.259,0.184,2.414-0.175,3.566-0.591
		c0.087-0.04,0.194-0.069,0.194-0.19C114.72,38.707,114.826,38.334,114.661,38.044z M108.021,35.378c0,0.16,0.031,0.324-0.085,0.465
		c-1.202,1.391-2.612,2.289-4.541,2.026c-1.294-0.179-2.156-1.095-2.292-2.399c-0.203-1.865,0.571-3.25,2.097-4.24
		c1.431-0.93,3.045-1.427,4.661-1.918c0.332-0.099,0.269,0.102,0.269,0.272C108.129,30.573,108.031,34.438,108.021,35.378z"/>
	<path fill-rule="evenodd" clip-rule="evenodd" d="M168.557,24.323c-1.807-2.66-4.342-3.901-7.53-3.891
		c-2.893,0.009-5.278,1.073-7.065,3.382c-1.265,1.63-1.841,3.517-1.987,5.552c-0.188,2.74,0.364,5.285,2.113,7.456
		c1.997,2.49,4.662,3.465,7.812,3.188c2.491-0.233,4.536-1.289,6.064-3.281c1.524-1.972,2.046-4.264,2.116-6.28
		C170.079,27.818,169.534,25.765,168.557,24.323z M165.213,35.571c-0.204,0.461-0.463,0.898-0.751,1.309
		c-1.696,2.404-5.458,2.422-7.163-0.407c-0.809-1.337-1.172-2.806-1.343-4.332c-0.222-2.051-0.174-4.095,0.374-6.097
		c0.398-1.429,1.071-2.701,2.36-3.527c1.822-1.163,4.947-1.085,6.435,2.074c0.833,1.757,0.989,3.648,1.066,5.433
		C166.153,32.005,165.979,33.841,165.213,35.571z"/>
</g>
</svg>
