<?xml version="1.0" encoding="utf-8"?>
<!-- Generator: Adobe Illustrator 16.0.0, SVG Export Plug-In . SVG Version: 6.00 Build 0)  -->
<!DOCTYPE svg PUBLIC "-//W3C//DTD SVG 1.1//EN" "http://www.w3.org/Graphics/SVG/1.1/DTD/svg11.dtd">
<svg version="1.1" id="Capa_1" xmlns="http://www.w3.org/2000/svg" xmlns:xlink="http://www.w3.org/1999/xlink" x="0px" y="0px"
	 width="141.73px" height="141.73px" viewBox="0 0 141.73 141.73" enable-background="new 0 0 141.73 141.73" xml:space="preserve">
<g>
	<path fill-rule="evenodd" clip-rule="evenodd" d="M92.155,131.309c-1.491,1.188-2.624,2.714-4.149,3.886
		c-2.171,1.676-4.516,3.024-6.97,4.227c4.286-1.013,8.349-2.498,11.959-5.075l0,0c3.304-1.959,6.268-4.347,8.642-7.384
		c1.382-1.538,2.841-3.021,3.807-4.885c0.869-1.499,2.005-2.861,2.511-4.59c1.159-1.375,1.476-3.144,2.045-4.749
		c0.713-2.064,1.525-4.143,1.495-6.397c0.39-0.27,0.316-0.729,0.377-1.105c0.583-3.833,0.622-7.68,0.026-11.499
		c-1.798-11.56-7.247-21.021-16.817-27.869c-10.104-7.207-21.359-9.696-33.431-6.76c-15.897,3.866-26.188,13.918-30.79,29.651
		c-1.647,5.668-1.923,11.456-0.871,17.287c0.663,3.887,1.66,7.64,3.503,11.146c1.201,2.891,2.927,5.451,4.857,7.883
		c2.113,2.697,4.454,5.168,7.315,7.127c0.19,0.186,0.338,0.402,0.546,0.565c2.728,2.078,5.71,3.67,8.86,4.952
		c1.525,0.606,3.064,1.309,4.764,1.389c-0.843-0.579-1.727-1.039-2.584-1.509c-4.096-2.241-7.187-5.574-9.913-9.258
		c-2.686-4.333-4.061-9.071-4.386-14.13c-0.054-6.668,1.87-12.672,5.938-17.99c1.85-2.401,4.205-4.293,6.513-6.208
		c0.539-0.296,1.092-0.579,1.625-0.893c6.088-3.677,12.673-4.296,19.504-3.084c3.829,0.696,7.26,2.438,10.523,4.517
		c0.113,0.133,0.196,0.283,0.333,0.376c5.175,3.887,8.532,8.988,10.391,15.143c1.032,3.939,1.159,7.909,0.612,11.902
		C97.357,122.916,95.34,127.382,92.155,131.309z"/>
	<path fill-rule="evenodd" clip-rule="evenodd" d="M139.646,62.19c-2.505-17.254-10.244-31.762-23.521-43.085
		C99.901,5.286,81.043,0.125,60.003,3.14c-9.941,1.417-19.097,5.088-27.458,10.662C19.84,22.291,10.777,33.715,5.542,48.074
		c-3.354,9.203-4.67,18.738-3.921,28.551c0.439,5.608,1.472,11.094,3.26,16.412c2.273,7.312,5.803,13.98,10.432,20.051
		c1.132,1.702,2.456,3.241,3.838,4.726c2.308,2.538,4.71,4.992,7.476,7.044c0.385,0.38,0.736,0.796,1.161,1.133
		c7.005,5.428,14.738,9.421,23.234,11.932c0.31,0.094,0.606,0.323,0.951,0c-0.223-0.109-0.418-0.216-0.621-0.296
		c-5.83-2.135-11.073-5.239-15.831-9.205c-2.712-2.268-5.067-4.872-7.503-7.396c-2.246-2.848-4.298-5.802-6.046-8.988
		c-1.592-2.888-2.739-5.965-3.975-9.002c-0.073-0.31-0.128-0.606-0.228-0.902c-2.504-8.396-3.186-16.878-1.749-25.54
		c0.56-3.396,1.572-6.642,2.483-9.942c0.21-0.506,0.439-0.999,0.641-1.49c3.57-9.097,9.245-16.715,16.823-22.774
		c12.26-9.831,26.323-13.841,41.964-11.904c11.467,1.417,21.457,6.094,30.05,13.827c4.742,4.271,8.642,9.217,11.809,14.778
		c0.2,0.444,0.396,0.911,0.606,1.349c4.022,8.002,6.038,16.459,6.024,25.408c0,3.873-0.63,7.676-1.162,11.509
		c-1.409,5.589-3.397,10.96-6.208,16.035c-2.98,4.789-6.421,9.202-10.57,13.048c-4.315,3.913-9.052,7.193-14.347,9.595
		c-1.715,0.8-3.47,1.485-5.209,2.215c0.3,0.08,0.566,0.054,0.813,0c3.37-0.919,6.634-2.118,9.791-3.59
		c3.403-1.552,6.783-3.184,9.771-5.505c1.695-0.946,3.228-2.135,4.739-3.347c2.564-2.052,5.108-4.116,7.16-6.721
		c3.104-2.891,5.591-6.238,7.85-9.812c0.659-1.096,1.332-2.201,2.001-3.307c2.848-4.739,5.019-9.771,6.457-15.129
		c0.54-2.215,1.18-4.394,1.599-6.628C140.472,76.901,140.718,69.552,139.646,62.19z"/>
</g>
</svg>
