<svg xmlns="http://www.w3.org/2000/svg" version="1.0" width="880.000000pt" height="1360.000000pt" viewBox="0 0 880.000000 1360.000000" preserveAspectRatio="xMidYMid meet">

<g transform="translate(0.000000,1360.000000) scale(0.100000,-0.100000)" fill="#3399ff" stroke="none">
<path d="M4140 13189 c-777 -45 -1531 -317 -2133 -768 -541 -406 -977 -950 -1241 -1551 -322 -731 -407 -1594 -235 -2360 36 -160 138 -471 203 -624 75 -174 160 -336 396 -760 299 -538 364 -643 897 -1461 315 -485 496 -768 635 -995 851 -1393 1393 -2683 1693 -4030 25 -113 47 -209 48 -214 2 -5 16 53 31 130 210 1028 611 2115 1160 3149 310 583 580 1032 1101 1830 447 684 520 798 635 985 62 102 163 273 223 380 127 226 474 923 541 1087 257 627 320 1379 175 2108 -127 640 -416 1220 -873 1755 -678 792 -1689 1276 -2801 1340 -189 11 -258 11 -455 -1z m460 -2434 c141 -21 261 -59 395 -124 402 -197 668 -543 767 -996 20 -94 17 -420 -5 -522 -63 -287 -189 -518 -392 -718 -185 -181 -393 -297 -655 -363 -97 -25 -121 -27 -315 -27 -194 0 -218 2 -315 27 -134 34 -223 67 -329 124 -319 169 -565 460 -675 797 -51 157 -61 229 -61 432 0 203 6 242 56 409 151 495 595 879 1109 961 114 18 304 18 420 0z" fill="#3399ff"/>
</g>
</svg>